<svg width="201" height="29" viewBox="0 0 201 29" fill="none" xmlns="http://www.w3.org/2000/svg">
<path d="M22.0312 4.15625V28.1562H18.2188V9.75L13.5 14.1562L8.78125 9.75V28.1562H5V4.15625H8.78125L13.5938 8.65625L18.2188 4.15625H22.0312Z" fill="#111111"/>
<path d="M36.3125 28.1562H32.5V4.15625H36.3125V28.1562Z" fill="#111111"/>
<path d="M50.4062 28.1562H46.5938V4.15625H50.4062V28.1562Z" fill="#111111"/>
<path d="M64.7188 14.6562C64.7188 17.0938 64.0312 19.125 62.6562 20.75C61.2812 22.375 59.4375 23.1875 57.125 23.1875H54.3438V28.1562H50.5312V4.15625H57.125C59.4375 4.15625 61.2812 4.96875 62.6562 6.59375C64.0312 8.21875 64.7188 10.25 64.7188 12.6875V14.6562ZM60.9062 14.2812C60.9062 12.6562 60.4375 11.375 59.5 10.4375C58.5625 9.5 57.3125 9.03125 55.75 9.03125H54.3438V20.125H55.75C57.3125 20.125 58.5625 19.6562 59.5 18.7188C60.4375 17.7812 60.9062 16.5 60.9062 14.875V14.2812Z" fill="#111111"/>
<path d="M78.6562 4.15625L84.2812 28.1562H79.8125L78.4688 22.8438H72.4688L71.125 28.1562H66.6562L72.2812 4.15625H78.6562ZM77.2188 19.3438L75.4688 11.0312L73.7188 19.3438H77.2188Z" fill="#111111"/>
<path d="M90.5 4.15625H94.3125V28.1562H90.5V17.0938L98.5312 28.1562H103.25L94.3125 15.9062V4.15625Z" fill="#111111"/>
<path d="M124.969 4.15625L118.969 28.1562H114.5L120.5 4.15625H124.969Z" fill="#111111"/>
<path d="M141.656 4.15625L147.281 28.1562H142.812L141.469 22.8438H135.469L134.125 28.1562H129.656L135.281 4.15625H141.656ZM140.219 19.3438L138.469 11.0312L136.719 19.3438H140.219Z" fill="#111111"/>
<path d="M157.75 14.6562C157.75 17.0938 157.062 19.125 155.688 20.75C154.312 22.375 152.469 23.1875 150.156 23.1875H147.375V28.1562H143.562V4.15625H150.156C152.469 4.15625 154.312 4.96875 155.688 6.59375C157.062 8.21875 157.75 10.25 157.75 12.6875V14.6562ZM153.938 14.2812C153.938 12.6562 153.469 11.375 152.531 10.4375C151.594 9.5 150.344 9.03125 148.781 9.03125H147.375V20.125H148.781C150.344 20.125 151.594 19.6562 152.531 18.7188C153.469 17.7812 153.938 16.5 153.938 14.875V14.2812Z" fill="#111111"/>
<path d="M168.125 28.1562H164.312V9.75L159.594 14.1562L154.875 9.75V28.1562H151.062V4.15625H154.875L159.688 8.65625L164.312 4.15625H168.125V28.1562Z" fill="#111111"/>
<path d="M188.344 14.6562C188.344 17.0938 187.656 19.125 186.281 20.75C184.906 22.375 183.062 23.1875 180.75 23.1875H177.969V28.1562H174.156V4.15625H180.75C183.062 4.15625 184.906 4.96875 186.281 6.59375C187.656 8.21875 188.344 10.25 188.344 12.6875V14.6562ZM184.531 14.2812C184.531 12.6562 184.062 11.375 183.125 10.4375C182.188 9.5 180.938 9.03125 179.375 9.03125H177.969V20.125H179.375C180.938 20.125 182.188 19.6562 183.125 18.7188C184.062 17.7812 184.531 16.5 184.531 14.875V14.2812Z" fill="#111111"/>
</svg>
